<svg width="147" height="19" viewBox="0 0 147 19" fill="none" xmlns="http://www.w3.org/2000/svg">
<g id="WEBPUNKS">
<path d="M0 0.390946H6.31976L6.55097 8.62689L10.276 0.390946H14.592L14.6177 8.65295L18.2913 0.390946H24.6111L16.2104 18.6091H10.8155L10.3531 10.321L6.44821 18.6091H0.796392L0 0.390946Z" fill="white"/>
<path d="M26.4166 0.390946H39.7241L38.6451 5.5775H31.4262L31.0922 7.16735H36.2045L35.2283 11.8326H30.116L29.782 13.4225H37.0009L35.922 18.6091H22.6145L26.4166 0.390946Z" fill="white"/>
<path d="M41.5316 0.390946H51.1911C52.7325 0.390946 53.9485 0.75583 54.8391 1.4856C55.7468 2.19799 56.2006 3.1797 56.2006 4.43073C56.2006 4.81299 56.1664 5.17787 56.0979 5.52538C55.9609 6.20302 55.6783 6.86328 55.2501 7.50617C54.8219 8.13169 54.2825 8.64426 53.6316 9.0439C54.1968 9.35665 54.6079 9.72154 54.8648 10.1385C55.1217 10.5556 55.2501 11.0594 55.2501 11.6502C55.2501 12.0325 55.1987 12.4582 55.096 12.9273C54.8562 14.0741 54.3681 15.0818 53.6316 15.9506C52.9123 16.802 52.0389 17.4623 51.0113 17.9314C50.0008 18.3832 48.9304 18.6091 47.8 18.6091H37.7295L41.5316 0.390946ZM48.0055 7.29767C48.5364 7.29767 48.9475 7.19342 49.2386 6.98491C49.5298 6.75903 49.7267 6.39415 49.8295 5.89026C49.8638 5.68176 49.8809 5.54275 49.8809 5.47325C49.8809 5.16049 49.7696 4.93461 49.5469 4.79561C49.3414 4.63923 49.016 4.56104 48.5707 4.56104H46.5669L46.0017 7.29767H48.0055ZM46.8495 14.439C47.466 14.439 47.9284 14.3173 48.2367 14.0741C48.5621 13.8308 48.7848 13.4399 48.9047 12.9012C48.9389 12.7796 48.956 12.6059 48.956 12.38C48.956 12.0325 48.8362 11.7718 48.5964 11.5981C48.3737 11.4243 48.0055 11.3375 47.4917 11.3375H45.1539L44.5117 14.439H46.8495Z" fill="white"/>
<path d="M59.5066 0.390946H68.1385C69.9026 0.390946 71.3498 0.834019 72.4801 1.72017C73.6105 2.58893 74.1757 3.83128 74.1757 5.44719C74.1757 5.98583 74.1157 6.50709 73.9958 7.01097C73.5334 9.23503 72.5914 10.8944 71.1699 11.989C69.7655 13.0837 67.8302 13.631 65.364 13.631H62.8207L61.7931 18.6091H55.7045L59.5066 0.390946ZM65.1071 9.01783C65.9634 9.01783 66.5971 8.87883 67.0081 8.60082C67.4192 8.30544 67.7018 7.77549 67.8559 7.01097C67.9073 6.76772 67.933 6.55053 67.933 6.3594C67.933 5.87289 67.7617 5.52538 67.4192 5.31687C67.0938 5.10837 66.5971 5.00412 65.9292 5.00412H64.619L63.7969 9.01783H65.1071Z" fill="white"/>
<path d="M81.5539 19C80.0297 19 78.7366 18.722 77.6747 18.166C76.6129 17.61 75.8079 16.8454 75.2599 15.8724C74.7289 14.8994 74.4635 13.77 74.4635 12.4842C74.4635 11.824 74.5405 11.1289 74.6947 10.3992L76.8013 0.390946H82.8898L80.8346 10.2167C80.7319 10.7032 80.6805 11.1376 80.6805 11.5199C80.6805 12.128 80.8346 12.5798 81.1429 12.8752C81.4683 13.1706 82.0078 13.3182 82.7614 13.3182C83.652 13.3182 84.3541 13.0576 84.868 12.5364C85.3818 12.0151 85.7414 11.2419 85.9469 10.2167L88.0021 0.390946H94.1164L92.0098 10.3992C90.8109 16.1331 87.3256 19 81.5539 19Z" fill="white"/>
<path d="M96.3097 0.390946H101.679L105.25 8.86145L107.022 0.390946H112.854L109.052 18.6091H103.683L100.112 10.1125L98.3392 18.6091H92.5075L96.3097 0.390946Z" fill="white"/>
<path d="M115.163 0.390946H121.251L119.864 6.98491L126.287 0.390946H133.274L124.694 9.20028L129.935 18.6091H122.793L118.939 11.4938L117.449 18.6091H111.361L115.163 0.390946Z" fill="white"/>
<path d="M136.724 19C135.542 19 134.378 18.8784 133.23 18.6351C132.083 18.3919 131.175 18.0617 130.507 17.6447L131.637 12.2757C132.477 12.8317 133.401 13.2487 134.412 13.5268C135.439 13.8048 136.407 13.9438 137.315 13.9438C137.897 13.9438 138.308 13.8829 138.548 13.7613C138.788 13.6223 138.908 13.4138 138.908 13.1358C138.908 12.8752 138.753 12.6406 138.445 12.4321C138.137 12.2062 137.512 11.8674 136.57 11.4156C135.32 10.7901 134.403 10.1212 133.821 9.40878C133.239 8.69639 132.948 7.86237 132.948 6.90672C132.948 6.57659 132.99 6.17695 133.076 5.70782C133.316 4.57842 133.804 3.58802 134.54 2.73663C135.294 1.86786 136.262 1.1989 137.443 0.729767C138.642 0.243256 140.004 0 141.528 0C142.693 0 143.703 0.095565 144.559 0.286695C145.433 0.477824 146.246 0.773206 147 1.17284L145.895 6.3594C144.559 5.49063 143.129 5.05624 141.605 5.05624C140.406 5.05624 139.738 5.32556 139.601 5.8642C139.55 6.12483 139.636 6.33333 139.858 6.48971C140.098 6.64609 140.56 6.88935 141.245 7.21948C141.451 7.28898 141.751 7.4193 142.145 7.61043C143.463 8.23594 144.388 8.85277 144.919 9.46091C145.467 10.069 145.741 10.8249 145.741 11.7284C145.741 12.1802 145.673 12.7275 145.536 13.3704C145.159 15.1774 144.285 16.5674 142.915 17.5405C141.545 18.5135 139.481 19 136.724 19Z" fill="white"/>
</g>
</svg>
